<mxfile host="app.diagrams.net" modified="2022-07-21T06:06:20.763Z" agent="5.0 (Windows NT 10.0; Win64; x64) AppleWebKit/537.36 (KHTML, like Gecko) Chrome/103.0.5060.114 Safari/537.36 Edg/103.0.1264.49" etag="VbeIrPf0Ot4bUA_voZrf" version="20.0.4" type="github">
  <diagram id="knnRiP61EcZTkkcnmOvv" name="Page-1">
    <mxGraphModel dx="1422" dy="804" grid="1" gridSize="10" guides="1" tooltips="1" connect="1" arrows="1" fold="1" page="1" pageScale="1" pageWidth="827" pageHeight="1169" math="0" shadow="0">
      <root>
        <mxCell id="0" />
        <mxCell id="1" parent="0" />
        <mxCell id="YyE2DXB9Agdw8TqX3AQA-3" value="请求发起" style="shape=umlLifeline;perimeter=lifelinePerimeter;whiteSpace=wrap;html=1;container=1;collapsible=0;recursiveResize=0;outlineConnect=0;" parent="1" vertex="1">
          <mxGeometry x="30" y="80" width="110" height="750" as="geometry" />
        </mxCell>
        <mxCell id="YyE2DXB9Agdw8TqX3AQA-4" value="拦截器" style="shape=umlLifeline;perimeter=lifelinePerimeter;whiteSpace=wrap;html=1;container=1;collapsible=0;recursiveResize=0;outlineConnect=0;" parent="1" vertex="1">
          <mxGeometry x="240" y="80" width="100" height="750" as="geometry" />
        </mxCell>
        <mxCell id="YyE2DXB9Agdw8TqX3AQA-9" value="" style="html=1;points=[];perimeter=orthogonalPerimeter;" parent="YyE2DXB9Agdw8TqX3AQA-4" vertex="1">
          <mxGeometry x="45" y="120" width="10" height="80" as="geometry" />
        </mxCell>
        <mxCell id="YyE2DXB9Agdw8TqX3AQA-11" value="" style="html=1;points=[];perimeter=orthogonalPerimeter;" parent="YyE2DXB9Agdw8TqX3AQA-4" vertex="1">
          <mxGeometry x="45" y="250" width="10" height="80" as="geometry" />
        </mxCell>
        <mxCell id="YyE2DXB9Agdw8TqX3AQA-12" value="拦截链接头，判断是否是API地址" style="edgeStyle=orthogonalEdgeStyle;html=1;align=left;spacingLeft=2;endArrow=block;rounded=0;entryX=1;entryY=0;" parent="YyE2DXB9Agdw8TqX3AQA-4" target="YyE2DXB9Agdw8TqX3AQA-11" edge="1">
          <mxGeometry relative="1" as="geometry">
            <mxPoint x="50" y="190" as="sourcePoint" />
            <Array as="points">
              <mxPoint x="80" y="190" />
            </Array>
          </mxGeometry>
        </mxCell>
        <mxCell id="YyE2DXB9Agdw8TqX3AQA-14" value="" style="html=1;points=[];perimeter=orthogonalPerimeter;" parent="YyE2DXB9Agdw8TqX3AQA-4" vertex="1">
          <mxGeometry x="45" y="380" width="10" height="100" as="geometry" />
        </mxCell>
        <mxCell id="YyE2DXB9Agdw8TqX3AQA-15" value="根绝接口地址添加对应token" style="edgeStyle=orthogonalEdgeStyle;html=1;align=left;spacingLeft=2;endArrow=block;rounded=0;entryX=1;entryY=0;" parent="YyE2DXB9Agdw8TqX3AQA-4" target="YyE2DXB9Agdw8TqX3AQA-14" edge="1">
          <mxGeometry relative="1" as="geometry">
            <mxPoint x="50" y="320" as="sourcePoint" />
            <Array as="points">
              <mxPoint x="80" y="320" />
            </Array>
          </mxGeometry>
        </mxCell>
        <mxCell id="YyE2DXB9Agdw8TqX3AQA-5" value="发起真正请求" style="shape=umlLifeline;perimeter=lifelinePerimeter;whiteSpace=wrap;html=1;container=1;collapsible=0;recursiveResize=0;outlineConnect=0;" parent="1" vertex="1">
          <mxGeometry x="460" y="80" width="100" height="750" as="geometry" />
        </mxCell>
        <mxCell id="YyE2DXB9Agdw8TqX3AQA-24" value="" style="html=1;points=[];perimeter=orthogonalPerimeter;" parent="YyE2DXB9Agdw8TqX3AQA-5" vertex="1">
          <mxGeometry x="50" y="280" width="10" height="80" as="geometry" />
        </mxCell>
        <mxCell id="YyE2DXB9Agdw8TqX3AQA-27" value="" style="html=1;points=[];perimeter=orthogonalPerimeter;" parent="YyE2DXB9Agdw8TqX3AQA-5" vertex="1">
          <mxGeometry x="50" y="440" width="10" height="80" as="geometry" />
        </mxCell>
        <mxCell id="YyE2DXB9Agdw8TqX3AQA-10" value="请求开始" style="html=1;verticalAlign=bottom;startArrow=oval;endArrow=block;startSize=8;rounded=0;entryX=0.4;entryY=0.013;entryDx=0;entryDy=0;entryPerimeter=0;" parent="1" target="YyE2DXB9Agdw8TqX3AQA-9" edge="1">
          <mxGeometry x="0.0036" relative="1" as="geometry">
            <mxPoint x="90" y="200" as="sourcePoint" />
            <mxPoint x="360" y="200" as="targetPoint" />
            <mxPoint as="offset" />
          </mxGeometry>
        </mxCell>
        <mxCell id="YyE2DXB9Agdw8TqX3AQA-13" value="是新API地址或者图片地址，直接请求" style="html=1;verticalAlign=bottom;endArrow=block;rounded=0;exitX=0.9;exitY=0.375;exitDx=0;exitDy=0;exitPerimeter=0;" parent="1" source="YyE2DXB9Agdw8TqX3AQA-11" target="YyE2DXB9Agdw8TqX3AQA-5" edge="1">
          <mxGeometry width="80" relative="1" as="geometry">
            <mxPoint x="390" y="360" as="sourcePoint" />
            <mxPoint x="460" y="360" as="targetPoint" />
          </mxGeometry>
        </mxCell>
        <mxCell id="YyE2DXB9Agdw8TqX3AQA-16" value="发起请求" style="html=1;verticalAlign=bottom;endArrow=block;rounded=0;exitX=1;exitY=0.59;exitDx=0;exitDy=0;exitPerimeter=0;" parent="1" source="YyE2DXB9Agdw8TqX3AQA-14" target="YyE2DXB9Agdw8TqX3AQA-5" edge="1">
          <mxGeometry width="80" relative="1" as="geometry">
            <mxPoint x="375" y="520" as="sourcePoint" />
            <mxPoint x="490" y="520" as="targetPoint" />
          </mxGeometry>
        </mxCell>
        <mxCell id="YyE2DXB9Agdw8TqX3AQA-19" value="结果拦截" style="shape=umlLifeline;perimeter=lifelinePerimeter;whiteSpace=wrap;html=1;container=1;collapsible=0;recursiveResize=0;outlineConnect=0;" parent="1" vertex="1">
          <mxGeometry x="670" y="80" width="100" height="770" as="geometry" />
        </mxCell>
        <mxCell id="YyE2DXB9Agdw8TqX3AQA-25" value="" style="html=1;points=[];perimeter=orthogonalPerimeter;" parent="YyE2DXB9Agdw8TqX3AQA-19" vertex="1">
          <mxGeometry x="45" y="330" width="10" height="80" as="geometry" />
        </mxCell>
        <mxCell id="YyE2DXB9Agdw8TqX3AQA-28" value="" style="html=1;points=[];perimeter=orthogonalPerimeter;" parent="YyE2DXB9Agdw8TqX3AQA-19" vertex="1">
          <mxGeometry x="45" y="500" width="10" height="80" as="geometry" />
        </mxCell>
        <mxCell id="YyE2DXB9Agdw8TqX3AQA-26" value="返回结果" style="html=1;verticalAlign=bottom;startArrow=oval;endArrow=block;startSize=8;rounded=0;exitX=1.4;exitY=0.65;exitDx=0;exitDy=0;exitPerimeter=0;" parent="1" source="YyE2DXB9Agdw8TqX3AQA-24" target="YyE2DXB9Agdw8TqX3AQA-25" edge="1">
          <mxGeometry relative="1" as="geometry">
            <mxPoint x="655" y="410" as="sourcePoint" />
          </mxGeometry>
        </mxCell>
        <mxCell id="YyE2DXB9Agdw8TqX3AQA-29" value="返回结果" style="html=1;verticalAlign=bottom;startArrow=oval;endArrow=block;startSize=8;rounded=0;exitX=1;exitY=0.788;exitDx=0;exitDy=0;exitPerimeter=0;" parent="1" source="YyE2DXB9Agdw8TqX3AQA-27" target="YyE2DXB9Agdw8TqX3AQA-28" edge="1">
          <mxGeometry relative="1" as="geometry">
            <mxPoint x="655" y="580" as="sourcePoint" />
          </mxGeometry>
        </mxCell>
        <mxCell id="YyE2DXB9Agdw8TqX3AQA-33" value="2.Retrofit请求层" style="swimlane;fillColor=none;" parent="1" vertex="1">
          <mxGeometry x="230" y="30" width="340" height="710" as="geometry" />
        </mxCell>
        <mxCell id="YyE2DXB9Agdw8TqX3AQA-34" value="1.发起" style="swimlane;fillColor=none;" parent="1" vertex="1">
          <mxGeometry x="20" y="30" width="150" height="710" as="geometry" />
        </mxCell>
        <mxCell id="YyE2DXB9Agdw8TqX3AQA-35" value="3.结果拦截输出" style="swimlane;fillColor=none;" parent="1" vertex="1">
          <mxGeometry x="640" y="30" width="150" height="710" as="geometry" />
        </mxCell>
        <mxCell id="YyE2DXB9Agdw8TqX3AQA-43" value="APP启动" style="rounded=0;whiteSpace=wrap;html=1;fillColor=none;" parent="1" vertex="1">
          <mxGeometry x="50" y="950" width="120" height="60" as="geometry" />
        </mxCell>
        <mxCell id="YyE2DXB9Agdw8TqX3AQA-44" value="" style="endArrow=classic;html=1;rounded=0;entryX=0;entryY=0.5;entryDx=0;entryDy=0;exitX=1;exitY=0.5;exitDx=0;exitDy=0;" parent="1" source="YyE2DXB9Agdw8TqX3AQA-43" target="YyE2DXB9Agdw8TqX3AQA-45" edge="1">
          <mxGeometry width="50" height="50" relative="1" as="geometry">
            <mxPoint x="180" y="980" as="sourcePoint" />
            <mxPoint x="270" y="980" as="targetPoint" />
          </mxGeometry>
        </mxCell>
        <mxCell id="YyE2DXB9Agdw8TqX3AQA-45" value="检测旧接口&lt;br&gt;访问Token" style="rounded=0;whiteSpace=wrap;html=1;fillColor=none;" parent="1" vertex="1">
          <mxGeometry x="230" y="950" width="120" height="60" as="geometry" />
        </mxCell>
        <mxCell id="YyE2DXB9Agdw8TqX3AQA-48" value="" style="endArrow=classic;html=1;rounded=0;exitX=1;exitY=0.5;exitDx=0;exitDy=0;entryX=0;entryY=0.5;entryDx=0;entryDy=0;" parent="1" source="YyE2DXB9Agdw8TqX3AQA-45" target="YyE2DXB9Agdw8TqX3AQA-49" edge="1">
          <mxGeometry width="50" height="50" relative="1" as="geometry">
            <mxPoint x="390" y="980" as="sourcePoint" />
            <mxPoint x="490" y="979.5" as="targetPoint" />
          </mxGeometry>
        </mxCell>
        <mxCell id="YyE2DXB9Agdw8TqX3AQA-49" value="更新本地API列表接口" style="rounded=0;whiteSpace=wrap;html=1;fillColor=none;" parent="1" vertex="1">
          <mxGeometry x="400" y="950" width="130" height="60" as="geometry" />
        </mxCell>
        <mxCell id="YyE2DXB9Agdw8TqX3AQA-50" value="" style="endArrow=classic;html=1;rounded=0;exitX=1;exitY=0.5;exitDx=0;exitDy=0;entryX=0;entryY=0.5;entryDx=0;entryDy=0;" parent="1" source="YyE2DXB9Agdw8TqX3AQA-49" target="YyE2DXB9Agdw8TqX3AQA-51" edge="1">
          <mxGeometry width="50" height="50" relative="1" as="geometry">
            <mxPoint x="640" y="979.5" as="sourcePoint" />
            <mxPoint x="740" y="979.5" as="targetPoint" />
          </mxGeometry>
        </mxCell>
        <mxCell id="YyE2DXB9Agdw8TqX3AQA-51" value="更新获取用户信息Token" style="rounded=0;whiteSpace=wrap;html=1;fillColor=none;" parent="1" vertex="1">
          <mxGeometry x="590" y="950" width="113" height="60" as="geometry" />
        </mxCell>
        <mxCell id="YyE2DXB9Agdw8TqX3AQA-57" value="检测旧接口&lt;br&gt;访问JavaToken" style="rounded=0;whiteSpace=wrap;html=1;fillColor=none;" parent="1" vertex="1">
          <mxGeometry x="770" y="950" width="120" height="60" as="geometry" />
        </mxCell>
        <mxCell id="YyE2DXB9Agdw8TqX3AQA-58" value="" style="endArrow=classic;html=1;rounded=0;exitX=1;exitY=0.5;exitDx=0;exitDy=0;" parent="1" source="YyE2DXB9Agdw8TqX3AQA-51" target="YyE2DXB9Agdw8TqX3AQA-57" edge="1">
          <mxGeometry width="50" height="50" relative="1" as="geometry">
            <mxPoint x="890" y="980" as="sourcePoint" />
            <mxPoint x="800" y="990" as="targetPoint" />
          </mxGeometry>
        </mxCell>
        <mxCell id="YyE2DXB9Agdw8TqX3AQA-60" value="旧接口访问token:关联APISetting接口返回的接口相关，请求时在链接上追加query参数token" style="text;html=1;strokeColor=none;fillColor=none;align=left;verticalAlign=middle;whiteSpace=wrap;rounded=0;fontSize=15;" parent="1" vertex="1">
          <mxGeometry x="50" y="1060" width="785" height="30" as="geometry" />
        </mxCell>
        <mxCell id="YyE2DXB9Agdw8TqX3AQA-61" value="API列表接口：关键接口，App获取线上api接口列表，按照Map键值对的形式存储在本地。" style="text;html=1;strokeColor=none;fillColor=none;align=left;verticalAlign=middle;whiteSpace=wrap;rounded=0;fontSize=15;" parent="1" vertex="1">
          <mxGeometry x="50" y="1110" width="785" height="30" as="geometry" />
        </mxCell>
        <mxCell id="YyE2DXB9Agdw8TqX3AQA-63" value="旧接口访问JavaToken： 根据API接口返回的对应关键字：APPCLIENT_API_URL，APPCLIENT_API_URL_1，APPCLIENT_API_URL_2，如果请求接口是上述url地址开头时，拦截请求在链接上追加query参数JavaToken" style="text;html=1;strokeColor=none;fillColor=none;align=left;verticalAlign=middle;whiteSpace=wrap;rounded=0;fontSize=15;" parent="1" vertex="1">
          <mxGeometry x="42" y="1160" width="785" height="80" as="geometry" />
        </mxCell>
        <mxCell id="YyE2DXB9Agdw8TqX3AQA-98" value="" style="line;strokeWidth=2;direction=south;html=1;fontSize=15;fillColor=none;" parent="1" vertex="1">
          <mxGeometry x="490" y="1450" width="10" height="350" as="geometry" />
        </mxCell>
        <mxCell id="4O21yXThZ4AQ3JlfGDuG-10" value="Link定义：接口层，只负责业务的拓展，真正实施交由 业务组件实现该接口，来完成业务分发" style="text;html=1;strokeColor=none;fillColor=none;align=left;verticalAlign=middle;whiteSpace=wrap;rounded=0;fontSize=15;" vertex="1" parent="1">
          <mxGeometry x="130" y="2230" width="980" height="30" as="geometry" />
        </mxCell>
        <mxCell id="4O21yXThZ4AQ3JlfGDuG-11" value="Service定义：服务层，统一管理link层，业务管理分发，业务之间的通讯管理员角色。" style="text;html=1;strokeColor=none;fillColor=none;align=left;verticalAlign=middle;whiteSpace=wrap;rounded=0;fontSize=15;" vertex="1" parent="1">
          <mxGeometry x="130" y="2190" width="980" height="30" as="geometry" />
        </mxCell>
        <mxCell id="YyE2DXB9Agdw8TqX3AQA-80" value="" style="group" parent="1" vertex="1" connectable="0">
          <mxGeometry x="80" y="1800" width="1000" height="180" as="geometry" />
        </mxCell>
        <mxCell id="YyE2DXB9Agdw8TqX3AQA-64" value="" style="rounded=0;whiteSpace=wrap;html=1;fontSize=15;fillColor=#ffe6cc;strokeColor=#d79b00;" parent="YyE2DXB9Agdw8TqX3AQA-80" vertex="1">
          <mxGeometry width="1000" height="180" as="geometry" />
        </mxCell>
        <mxCell id="YyE2DXB9Agdw8TqX3AQA-65" value="Router组件" style="text;html=1;align=center;verticalAlign=middle;whiteSpace=wrap;rounded=0;fontSize=15;" parent="YyE2DXB9Agdw8TqX3AQA-80" vertex="1">
          <mxGeometry x="413.88888888888886" y="150" width="138.8888888888889" height="30" as="geometry" />
        </mxCell>
        <mxCell id="YyE2DXB9Agdw8TqX3AQA-66" value="" style="rounded=0;whiteSpace=wrap;html=1;fontSize=15;fillColor=#dae8fc;strokeColor=#6c8ebf;" parent="YyE2DXB9Agdw8TqX3AQA-80" vertex="1">
          <mxGeometry x="38.88888888888889" y="30" width="291.6666666666667" height="100" as="geometry" />
        </mxCell>
        <mxCell id="YyE2DXB9Agdw8TqX3AQA-68" value="" style="rounded=0;whiteSpace=wrap;html=1;fontSize=15;fillColor=#dae8fc;strokeColor=#6c8ebf;" parent="YyE2DXB9Agdw8TqX3AQA-80" vertex="1">
          <mxGeometry x="386.11111111111114" y="30" width="291.6666666666667" height="100" as="geometry" />
        </mxCell>
        <mxCell id="YyE2DXB9Agdw8TqX3AQA-69" value="AService" style="text;html=1;strokeColor=none;fillColor=none;align=center;verticalAlign=middle;whiteSpace=wrap;rounded=0;fontSize=15;" parent="YyE2DXB9Agdw8TqX3AQA-80" vertex="1">
          <mxGeometry x="52.77777777777778" y="100" width="83.33333333333333" height="30" as="geometry" />
        </mxCell>
        <mxCell id="YyE2DXB9Agdw8TqX3AQA-70" value="BService" style="text;html=1;strokeColor=none;fillColor=none;align=center;verticalAlign=middle;whiteSpace=wrap;rounded=0;fontSize=15;" parent="YyE2DXB9Agdw8TqX3AQA-80" vertex="1">
          <mxGeometry x="413.88888888888886" y="100" width="83.33333333333333" height="30" as="geometry" />
        </mxCell>
        <mxCell id="YyE2DXB9Agdw8TqX3AQA-71" value="ALink1" style="rounded=0;whiteSpace=wrap;html=1;fontSize=15;fillColor=#d5e8d4;strokeColor=#82b366;" parent="YyE2DXB9Agdw8TqX3AQA-80" vertex="1">
          <mxGeometry x="56.94444444444444" y="44" width="97.22222222222221" height="30" as="geometry" />
        </mxCell>
        <mxCell id="YyE2DXB9Agdw8TqX3AQA-72" value="ALink2" style="rounded=0;whiteSpace=wrap;html=1;fontSize=15;fillColor=#d5e8d4;strokeColor=#82b366;" parent="YyE2DXB9Agdw8TqX3AQA-80" vertex="1">
          <mxGeometry x="166.66666666666666" y="44" width="97.22222222222221" height="30" as="geometry" />
        </mxCell>
        <mxCell id="YyE2DXB9Agdw8TqX3AQA-74" value="..." style="rounded=0;whiteSpace=wrap;html=1;fontSize=15;fillColor=#d5e8d4;strokeColor=#82b366;" parent="YyE2DXB9Agdw8TqX3AQA-80" vertex="1">
          <mxGeometry x="275" y="44" width="27.77777777777778" height="30" as="geometry" />
        </mxCell>
        <mxCell id="YyE2DXB9Agdw8TqX3AQA-75" value="BLink1" style="rounded=0;whiteSpace=wrap;html=1;fontSize=15;fillColor=#d5e8d4;strokeColor=#82b366;" parent="YyE2DXB9Agdw8TqX3AQA-80" vertex="1">
          <mxGeometry x="406.94444444444446" y="44" width="97.22222222222221" height="30" as="geometry" />
        </mxCell>
        <mxCell id="YyE2DXB9Agdw8TqX3AQA-76" value="BLink2" style="rounded=0;whiteSpace=wrap;html=1;fontSize=15;fillColor=#d5e8d4;strokeColor=#82b366;" parent="YyE2DXB9Agdw8TqX3AQA-80" vertex="1">
          <mxGeometry x="516.6666666666666" y="44" width="97.22222222222221" height="30" as="geometry" />
        </mxCell>
        <mxCell id="YyE2DXB9Agdw8TqX3AQA-77" value="..." style="rounded=0;whiteSpace=wrap;html=1;fontSize=15;fillColor=#d5e8d4;strokeColor=#82b366;" parent="YyE2DXB9Agdw8TqX3AQA-80" vertex="1">
          <mxGeometry x="627.7777777777777" y="44" width="27.77777777777778" height="30" as="geometry" />
        </mxCell>
        <mxCell id="YyE2DXB9Agdw8TqX3AQA-82" value="B组件" style="text;html=1;strokeColor=none;fillColor=none;align=center;verticalAlign=middle;whiteSpace=wrap;rounded=0;fontSize=15;" parent="1" vertex="1">
          <mxGeometry x="620" y="1560" width="60" height="30" as="geometry" />
        </mxCell>
        <mxCell id="YyE2DXB9Agdw8TqX3AQA-86" value="" style="group" parent="1" vertex="1" connectable="0">
          <mxGeometry x="140" y="1550" width="268" height="120" as="geometry" />
        </mxCell>
        <mxCell id="YyE2DXB9Agdw8TqX3AQA-78" value="" style="rounded=0;whiteSpace=wrap;html=1;fontSize=15;fillColor=#fff2cc;strokeColor=#d6b656;" parent="YyE2DXB9Agdw8TqX3AQA-86" vertex="1">
          <mxGeometry width="268" height="120" as="geometry" />
        </mxCell>
        <mxCell id="YyE2DXB9Agdw8TqX3AQA-81" value="A组件" style="text;html=1;strokeColor=none;fillColor=none;align=center;verticalAlign=middle;whiteSpace=wrap;rounded=0;fontSize=15;" parent="YyE2DXB9Agdw8TqX3AQA-86" vertex="1">
          <mxGeometry x="108" y="90" width="60" height="30" as="geometry" />
        </mxCell>
        <mxCell id="YyE2DXB9Agdw8TqX3AQA-84" value="ALink1impl" style="rounded=0;whiteSpace=wrap;html=1;fontSize=15;fillColor=#f8cecc;strokeColor=#b85450;" parent="YyE2DXB9Agdw8TqX3AQA-86" vertex="1">
          <mxGeometry x="16" y="10" width="92" height="30" as="geometry" />
        </mxCell>
        <mxCell id="YyE2DXB9Agdw8TqX3AQA-85" value="ALink2impl" style="rounded=0;whiteSpace=wrap;html=1;fontSize=15;fillColor=#f8cecc;strokeColor=#b85450;" parent="YyE2DXB9Agdw8TqX3AQA-86" vertex="1">
          <mxGeometry x="118" y="10" width="92" height="30" as="geometry" />
        </mxCell>
        <mxCell id="YyE2DXB9Agdw8TqX3AQA-87" value="" style="group" parent="1" vertex="1" connectable="0">
          <mxGeometry x="560" y="1550" width="268" height="120" as="geometry" />
        </mxCell>
        <mxCell id="YyE2DXB9Agdw8TqX3AQA-88" value="" style="rounded=0;whiteSpace=wrap;html=1;fontSize=15;fillColor=#fff2cc;strokeColor=#d6b656;" parent="YyE2DXB9Agdw8TqX3AQA-87" vertex="1">
          <mxGeometry width="268" height="120" as="geometry" />
        </mxCell>
        <mxCell id="YyE2DXB9Agdw8TqX3AQA-89" value="B组件" style="text;html=1;strokeColor=none;fillColor=none;align=center;verticalAlign=middle;whiteSpace=wrap;rounded=0;fontSize=15;" parent="YyE2DXB9Agdw8TqX3AQA-87" vertex="1">
          <mxGeometry x="108" y="90" width="60" height="30" as="geometry" />
        </mxCell>
        <mxCell id="YyE2DXB9Agdw8TqX3AQA-90" value="BLink1impl" style="rounded=0;whiteSpace=wrap;html=1;fontSize=15;fillColor=#f8cecc;strokeColor=#b85450;" parent="YyE2DXB9Agdw8TqX3AQA-87" vertex="1">
          <mxGeometry x="16" y="10" width="92" height="30" as="geometry" />
        </mxCell>
        <mxCell id="YyE2DXB9Agdw8TqX3AQA-91" value="BLink2impl" style="rounded=0;whiteSpace=wrap;html=1;fontSize=15;fillColor=#f8cecc;strokeColor=#b85450;" parent="YyE2DXB9Agdw8TqX3AQA-87" vertex="1">
          <mxGeometry x="118" y="10" width="92" height="30" as="geometry" />
        </mxCell>
        <mxCell id="YyE2DXB9Agdw8TqX3AQA-94" value="" style="group" parent="1" vertex="1" connectable="0">
          <mxGeometry x="644" y="1690" width="100" height="70" as="geometry" />
        </mxCell>
        <mxCell id="YyE2DXB9Agdw8TqX3AQA-92" value="" style="html=1;shadow=0;dashed=0;align=center;verticalAlign=middle;shape=mxgraph.arrows2.arrow;dy=0.6;dx=40;direction=north;notch=0;fontSize=15;fillColor=#fff2cc;strokeColor=#d6b656;" parent="YyE2DXB9Agdw8TqX3AQA-94" vertex="1">
          <mxGeometry width="35" height="70" as="geometry" />
        </mxCell>
        <mxCell id="YyE2DXB9Agdw8TqX3AQA-93" value="" style="html=1;shadow=0;dashed=0;align=center;verticalAlign=middle;shape=mxgraph.arrows2.arrow;dy=0.6;dx=40;direction=north;notch=0;fontSize=15;fillColor=#fff2cc;strokeColor=#d6b656;rotation=-180;" parent="YyE2DXB9Agdw8TqX3AQA-94" vertex="1">
          <mxGeometry x="65" width="35" height="70" as="geometry" />
        </mxCell>
        <mxCell id="YyE2DXB9Agdw8TqX3AQA-95" value="" style="group" parent="1" vertex="1" connectable="0">
          <mxGeometry x="220" y="1690" width="100" height="70" as="geometry" />
        </mxCell>
        <mxCell id="YyE2DXB9Agdw8TqX3AQA-96" value="" style="html=1;shadow=0;dashed=0;align=center;verticalAlign=middle;shape=mxgraph.arrows2.arrow;dy=0.6;dx=40;direction=north;notch=0;fontSize=15;fillColor=#fff2cc;strokeColor=#d6b656;" parent="YyE2DXB9Agdw8TqX3AQA-95" vertex="1">
          <mxGeometry width="35" height="70" as="geometry" />
        </mxCell>
        <mxCell id="YyE2DXB9Agdw8TqX3AQA-97" value="" style="html=1;shadow=0;dashed=0;align=center;verticalAlign=middle;shape=mxgraph.arrows2.arrow;dy=0.6;dx=40;direction=north;notch=0;fontSize=15;fillColor=#fff2cc;strokeColor=#d6b656;rotation=-180;" parent="YyE2DXB9Agdw8TqX3AQA-95" vertex="1">
          <mxGeometry x="65" width="35" height="70" as="geometry" />
        </mxCell>
      </root>
    </mxGraphModel>
  </diagram>
</mxfile>
